<?xml version="1.0" encoding="UTF-8" standalone="no"?>
<!-- Created with Inkscape (http://www.inkscape.org/) -->

<svg
   xmlns:dc="http://purl.org/dc/elements/1.1/"
   xmlns:cc="http://creativecommons.org/ns#"
   xmlns:rdf="http://www.w3.org/1999/02/22-rdf-syntax-ns#"
   xmlns:svg="http://www.w3.org/2000/svg"
   xmlns="http://www.w3.org/2000/svg"
   xmlns:xlink="http://www.w3.org/1999/xlink"
   xmlns:sodipodi="http://sodipodi.sourceforge.net/DTD/sodipodi-0.dtd"
   xmlns:inkscape="http://www.inkscape.org/namespaces/inkscape"
   width="256"
   height="256"
   id="svg2"
   version="1.1"
   inkscape:version="0.48.2 r9819"
   sodipodi:docname="seqpipe-logo.svg"
   inkscape:export-filename="/Users/yanll/Research/Tools/seqpipe-logo/seqpipe-logo-32.png"
   inkscape:export-xdpi="11.25"
   inkscape:export-ydpi="11.25">
  <defs
     id="defs4">
    <linearGradient
       inkscape:collect="always"
       id="linearGradient3795">
      <stop
         style="stop-color:#0000ff;stop-opacity:1"
         offset="0"
         id="stop3797" />
      <stop
         style="stop-color:#000040;stop-opacity:0"
         offset="1"
         id="stop3799" />
    </linearGradient>
    <linearGradient
       id="linearGradient2987">
      <stop
         style="stop-color:#666666;stop-opacity:1"
         offset="0"
         id="stop2989" />
      <stop
         style="stop-color:#0000ff;stop-opacity:1"
         offset="1"
         id="stop2991" />
    </linearGradient>
    <radialGradient
       inkscape:collect="always"
       xlink:href="#linearGradient3795"
       id="radialGradient3803"
       cx="103.43259"
       cy="915.65344"
       fx="103.43259"
       fy="915.65344"
       r="66.170853"
       gradientTransform="matrix(0.98284062,1.4986976,-2.2844233,1.4981168,2091.8104,-624.95576)"
       gradientUnits="userSpaceOnUse" />
  </defs>
  <sodipodi:namedview
     id="base"
     pagecolor="#ffffff"
     bordercolor="#666666"
     borderopacity="1.0"
     inkscape:pageopacity="0.0"
     inkscape:pageshadow="2"
     inkscape:zoom="1.4142136"
     inkscape:cx="152.6168"
     inkscape:cy="78.249808"
     inkscape:document-units="px"
     inkscape:current-layer="layer1"
     showgrid="false"
     inkscape:window-width="1280"
     inkscape:window-height="752"
     inkscape:window-x="0"
     inkscape:window-y="0"
     inkscape:window-maximized="0" />
  <metadata
     id="metadata7">
    <rdf:RDF>
      <cc:Work
         rdf:about="">
        <dc:format>image/svg+xml</dc:format>
        <dc:type
           rdf:resource="http://purl.org/dc/dcmitype/StillImage" />
        <dc:title></dc:title>
      </cc:Work>
    </rdf:RDF>
  </metadata>
  <g
     inkscape:label="Layer 1"
     inkscape:groupmode="layer"
     id="layer1"
     transform="translate(0,-796.36218)"
     style="display:inline">
    <path
       style="fill:#ff0000;fill-opacity:0;stroke-width:1.82700002;stroke-miterlimit:4;stroke-dasharray:none"
       id="path3775"
       d="m 181.0974,87.167962 c -3.12722,0.685631 -5.94896,2.317773 -8.97058,3.31743 -0.64291,0.212696 -1.39035,0.780919 -1.98109,0.449877 -0.45471,-0.254807 -0.004,-1.042454 -0.006,-1.563681 1.21478,-0.855779 2.308,-1.91751 3.64432,-2.567338 5.51181,-2.680292 11.1074,-5.211967 16.83565,-7.391691 8.42063,-3.204235 39.25929,-12.557727 45.721,-14.513954 26.76296,-8.102262 30.26059,-9.003702 57.10401,-16.714699 34.53992,-9.553982 68.8845,-19.789286 103.10824,-30.414929 5.48905,-1.89111 11.17235,-3.302821 16.52255,-5.592008 1.76989,-0.757281 2.23533,-1.071914 3.90231,-1.999576 -1.30829,0.725181 -2.51038,1.68898 -3.92486,2.175542 -0.76802,0.264186 1.30785,-0.965284 1.92871,-1.488897 1.62248,-1.3683352 3.22897,-2.9709581 4.21278,-4.8807218 0.26899,-0.5221623 0.4161,-1.0985878 0.62415,-1.6478818 -0.01,-0.4553556 0.11271,-0.9330739 -0.0286,-1.3660669 -0.33969,-1.0411557 -1.45535,-1.507486 -2.35465,-1.8538771 -2.3367,-0.90004378 -4.86621,-1.10747613 -7.32852,-1.37697166 -3.23972,-0.15732601 -6.57554,-0.57426936 -9.77478,0.15990123 0,0 5.78227,-4.35500627 5.78227,-4.35500627 l 0,0 c 3.15553,-0.3696973 6.3316,0.056436 9.4811,0.3031253 2.53868,0.3089447 5.22549,0.5153544 7.62683,1.4794896 1.2459,0.5002245 2.39339,1.0492207 2.84598,2.42202365 0.17182,0.52119521 0.0377,1.09692804 0.0566,1.64539205 -0.20904,0.6027729 -0.3543,1.2316001 -0.62711,1.8083187 -0.95964,2.028644 -2.5674,3.6619333 -4.21911,5.134793 -0.60162,0.5364696 -1.17992,1.1125488 -1.85974,1.5456509 -2.54249,1.6197641 -5.19111,3.0665771 -7.78666,4.5998661 -1.71927,0.905877 -2.06285,1.149846 -3.86994,1.85327 -4.90427,1.909025 -10.1036,2.939696 -15.12866,4.454399 -33.15995,8.954188 -66.29797,17.989358 -99.30779,27.485691 -19.14911,5.500837 -38.06625,10.831733 -57.1038,16.714994 -8.97149,2.772502 -17.94367,5.552638 -26.82532,8.600734 -7.24368,2.485963 -14.34844,5.359898 -21.53839,7.997235 -2.71938,0.99749 -5.53123,1.755314 -8.18896,2.907018 -1.08391,0.469701 -1.98165,1.286454 -2.97247,1.929682 -0.33326,0.100655 -1.34774,0.290745 -0.99979,0.301965 1.31865,0.04252 3.7475,-1.13698 4.58445,-1.477821 2.2056,-0.898212 4.40474,-2.043143 6.78418,-2.417202 0,0 -5.96788,4.335924 -5.96788,4.335924 z"
       inkscape:connector-curvature="0"
       transform="translate(0,796.36218)" />
    <path
       sodipodi:type="arc"
       style="fill:#000000;fill-opacity:1;stroke-width:1.82700002;stroke-miterlimit:4;stroke-dasharray:none"
       id="path3781"
       sodipodi:cx="128.5"
       sodipodi:cy="47.75"
       sodipodi:rx="18"
       sodipodi:ry="19.75"
       d="m 146.5,47.75 a 18,19.75 0 1 1 -36,0 18,19.75 0 1 1 36,0 z"
       transform="matrix(1.1111111,0,0,1.0126582,-14.777777,786.00775)" />
    <rect
       style="fill:#000000;fill-opacity:1;stroke-width:1.82700002;stroke-miterlimit:4;stroke-dasharray:none"
       id="rect3779"
       width="20"
       height="180"
       x="118"
       y="834.36218" />
    <path
       sodipodi:type="star"
       style="fill:#000000;fill-opacity:1;stroke-width:1.82700002;stroke-miterlimit:4;stroke-dasharray:none"
       id="path3875"
       sodipodi:sides="3"
       sodipodi:cx="34.648232"
       sodipodi:cy="200.13857"
       sodipodi:r1="22.627417"
       sodipodi:r2="11.313708"
       sodipodi:arg1="1.5707963"
       sodipodi:arg2="2.6179939"
       inkscape:flatsided="true"
       inkscape:rounded="0"
       inkscape:randomized="0"
       d="m 34.648232,222.76598 -19.595918,-33.94112 39.191835,0 z"
       transform="matrix(1.0206207,0,0,1.0206207,22.637297,807.00261)"
       inkscape:transform-center-y="5.773494" />
    <path
       sodipodi:type="star"
       style="fill:#000000;fill-opacity:1;stroke-width:1.82700002;stroke-miterlimit:4;stroke-dasharray:none"
       id="path3877"
       sodipodi:sides="3"
       sodipodi:cx="160.51324"
       sodipodi:cy="184.58221"
       sodipodi:r1="24.78911"
       sodipodi:r2="12.394555"
       sodipodi:arg1="1.5707963"
       sodipodi:arg2="2.6179939"
       inkscape:flatsided="true"
       inkscape:rounded="0"
       inkscape:randomized="0"
       d="m 160.51325,209.37132 -21.468,-37.18366 42.93599,0 z"
       transform="matrix(0.93161919,0,0,0.93161919,48.462781,839.30784)"
       inkscape:transform-center-y="5.773502" />
    <path
       sodipodi:type="star"
       style="fill:#000000;fill-opacity:1;stroke-width:1.82700002;stroke-miterlimit:4;stroke-dasharray:none"
       id="path3879"
       sodipodi:sides="3"
       sodipodi:cx="135.0574"
       sodipodi:cy="234.7868"
       sodipodi:r1="26.87936"
       sodipodi:r2="13.43968"
       sodipodi:arg1="1.5707963"
       sodipodi:arg2="2.6179939"
       inkscape:flatsided="true"
       inkscape:rounded="0"
       inkscape:randomized="0"
       d="m 135.0574,261.66616 -23.27821,-40.31904 46.55642,0 z"
       transform="matrix(0.85917264,0,0,0.85917264,11.962374,809.54577)"
       inkscape:transform-center-y="5.7735074" />
    <rect
       style="fill:#000000;fill-opacity:1;stroke-width:1.82700002;stroke-miterlimit:4;stroke-dasharray:none"
       id="rect3881"
       width="160"
       height="20"
       x="48"
       y="904.36218" />
    <rect
       style="fill:#000000;fill-opacity:1;stroke-width:1.82700002;stroke-miterlimit:4;stroke-dasharray:none"
       id="rect3883"
       width="20"
       height="100"
       x="48"
       y="912.36218" />
    <rect
       style="fill:#000000;fill-opacity:1;stroke-width:1.82700002;stroke-miterlimit:4;stroke-dasharray:none"
       id="rect3885"
       width="20"
       height="100"
       x="188"
       y="912.36218" />
  </g>
</svg>
